<svg width="247" height="238" viewBox="0 0 247 238" fill="none" xmlns="http://www.w3.org/2000/svg">
<path fill-rule="evenodd" clip-rule="evenodd" d="M150.757 28.143L204.937 1.79865L204.063 0L149.243 26.6556L126.633 75.3917L85 133.076V172.162L111.052 179.313L126.686 191.038L144.08 231.792L145.92 231.007L128.314 189.76L111.948 177.485L87 170.637V133.723L128.367 76.407L150.757 28.143Z" fill="#2E2E2D"/>
<path d="M81.792 180.483C86.6477 180.483 90.584 176.547 90.584 171.691C90.584 166.836 86.6477 162.899 81.792 162.899C76.9363 162.899 73 166.836 73 171.691C73 176.547 76.9363 180.483 81.792 180.483Z" fill="#4EAD2B"/>
<path d="M84.8133 166.835L79.4998 172.255H81.9531L78.2087 177.369L84.6542 171.262L82.0619 171.248L84.8133 166.835Z" fill="white"/>
<path d="M129.792 85.4834C134.648 85.4834 138.584 81.5471 138.584 76.6914C138.584 71.8357 134.648 67.8994 129.792 67.8994C124.936 67.8994 121 71.8357 121 76.6914C121 81.5471 124.936 85.4834 129.792 85.4834Z" fill="#4EAD2B"/>
<path d="M132.813 71.8352L127.5 77.2554H129.953L126.209 82.3695L132.654 76.2624L130.062 76.2483L132.813 71.8352Z" fill="white"/>
<path fill-rule="evenodd" clip-rule="evenodd" d="M204.909 0.482178L218.967 31.1099L225.976 77.163L246.051 136.888L233.845 176.047L146.036 231.744L144.964 230.055L232.154 174.751L243.949 136.911L224.024 77.6356L217.033 31.6888L203.091 1.31651L204.909 0.482178Z" fill="#666766" fill-opacity="0.5"/>
<g filter="url(#filter0_d_3_31909)">
<path d="M4 122.899C4 121.795 4.89543 120.899 6 120.899H171.765C172.869 120.899 173.765 121.795 173.765 122.899V151.017C173.765 152.122 172.869 153.017 171.765 153.017H6C4.89543 153.017 4 152.122 4 151.017V122.899Z" fill="white"/>
</g>
<path d="M75.1176 155.311C72.3646 153.476 66.3234 153.017 63.647 153.017H98.0587C96.147 153.399 91.6352 154.394 88.8823 155.311C86.1293 156.229 83.147 158.752 81.9999 159.899L75.1176 155.311Z" fill="white"/>
<path d="M33.4441 141.076H34.3641V133.846H32.4841V134.676H33.4441V141.076Z" fill="#534B4A"/>
<path d="M35.8173 140.996H40.6273V140.236H37.1873C38.4773 139.186 40.4173 137.656 40.4173 135.856C40.4173 134.516 39.5373 133.716 38.1773 133.716C36.8773 133.716 35.9073 134.516 35.8473 136.056H36.7273C36.7673 135.146 37.2473 134.496 38.1873 134.496C39.1673 134.496 39.5173 135.096 39.5173 135.896C39.5173 137.376 37.7173 138.816 35.8173 140.346V140.996Z" fill="#534B4A"/>
<path d="M44.6652 141.076H45.5752V136.346H46.7252V135.596H45.5752V135.206C45.5752 134.496 45.8452 134.196 46.6652 134.196V133.436C45.2652 133.436 44.6652 133.986 44.6652 135.206V135.596H43.9552V136.346H44.6652V141.076Z" fill="#534B4A"/>
<path d="M52.6462 135.596H51.7362V138.606C51.7362 139.786 51.1062 140.366 50.1662 140.366C49.2462 140.366 48.6362 139.796 48.6362 138.686V135.596H47.7362V138.806C47.7362 140.376 48.7262 141.156 49.9862 141.156C50.7162 141.156 51.3862 140.836 51.7362 140.266V141.076H52.6462V135.596Z" fill="#534B4A"/>
<path d="M58.1927 141.076H59.0927V137.846C59.0927 136.276 58.1227 135.496 56.8527 135.496C56.1127 135.496 55.4527 135.806 55.0927 136.376V135.596H54.1827V141.076H55.0927V138.046C55.0927 136.866 55.7327 136.286 56.6627 136.286C57.5827 136.286 58.1927 136.856 58.1927 137.976V141.076Z" fill="#534B4A"/>
<path d="M67.9252 141.076H68.8852L66.3752 134.146H65.3252L62.8052 141.076H63.7652L64.3252 139.526H67.3652L67.9252 141.076ZM67.1052 138.786H64.5852L65.8452 135.266L67.1052 138.786Z" fill="#534B4A"/>
<path d="M77.8935 141.076H78.7935V137.846C78.7935 136.276 77.8235 135.496 76.5735 135.496C75.7335 135.496 74.9535 135.926 74.6335 136.716C74.2735 135.896 73.5235 135.496 72.6235 135.496C71.9035 135.496 71.2535 135.806 70.8935 136.386V135.596H69.9835V141.076H70.8935V138.056C70.8935 136.876 71.5235 136.286 72.4435 136.286C73.3435 136.286 73.9435 136.856 73.9435 137.976V141.076H74.8435V138.056C74.8435 136.876 75.4735 136.286 76.3935 136.286C77.2935 136.286 77.8935 136.856 77.8935 137.976V141.076Z" fill="#534B4A"/>
<path d="M82.6162 136.276C83.5562 136.276 84.3562 136.866 84.3462 137.936H80.8862C80.9862 136.866 81.7262 136.276 82.6162 136.276ZM85.1762 139.386H84.1962C83.9962 139.976 83.4762 140.396 82.6562 140.396C81.7262 140.396 80.9462 139.786 80.8762 138.676H85.2562C85.2762 138.486 85.2862 138.326 85.2862 138.126C85.2862 136.626 84.2462 135.506 82.6562 135.506C81.0562 135.506 79.9462 136.596 79.9462 138.326C79.9462 140.066 81.0962 141.166 82.6562 141.166C84.0162 141.166 84.8962 140.386 85.1762 139.386Z" fill="#534B4A"/>
<path d="M90.4974 141.076H91.3974V137.846C91.3974 136.276 90.4274 135.496 89.1574 135.496C88.4174 135.496 87.7574 135.806 87.3974 136.376V135.596H86.4874V141.076H87.3974V138.046C87.3974 136.866 88.0374 136.286 88.9674 136.286C89.8874 136.286 90.4974 136.856 90.4974 137.976V141.076Z" fill="#534B4A"/>
<path d="M92.8839 141.076H93.7939V135.596H92.8839V141.076ZM93.3539 134.706C93.6839 134.706 93.9539 134.436 93.9539 134.086C93.9539 133.736 93.6839 133.466 93.3539 133.466C93.0039 133.466 92.7339 133.736 92.7339 134.086C92.7339 134.436 93.0039 134.706 93.3539 134.706Z" fill="#534B4A"/>
<path d="M95.5448 139.576C95.5448 140.676 96.0948 141.076 97.0648 141.076H97.8848V140.306H97.2148C96.6548 140.306 96.4548 140.116 96.4548 139.576V136.346H97.8848V135.596H96.4548V134.216H95.5448V135.596H94.8348V136.346H95.5448V139.576Z" fill="#534B4A"/>
<path d="M98.9874 141.076H99.8974V135.596H98.9874V141.076ZM99.4574 134.706C99.7874 134.706 100.057 134.436 100.057 134.086C100.057 133.736 99.7874 133.466 99.4574 133.466C99.1074 133.466 98.8374 133.736 98.8374 134.086C98.8374 134.436 99.1074 134.706 99.4574 134.706Z" fill="#534B4A"/>
<path d="M103.778 136.276C104.718 136.276 105.518 136.866 105.508 137.936H102.048C102.148 136.866 102.888 136.276 103.778 136.276ZM106.338 139.386H105.358C105.158 139.976 104.638 140.396 103.818 140.396C102.888 140.396 102.108 139.786 102.038 138.676H106.418C106.438 138.486 106.448 138.326 106.448 138.126C106.448 136.626 105.408 135.506 103.818 135.506C102.218 135.506 101.108 136.596 101.108 138.326C101.108 140.066 102.258 141.166 103.818 141.166C105.178 141.166 106.058 140.386 106.338 139.386Z" fill="#534B4A"/>
<path d="M111.59 139.586C111.55 137.626 108.37 138.336 108.37 137.036C108.37 136.596 108.77 136.276 109.44 136.276C110.17 136.276 110.59 136.676 110.63 137.226H111.54C111.48 136.156 110.68 135.506 109.47 135.506C108.25 135.506 107.46 136.196 107.46 137.036C107.46 139.076 110.7 138.366 110.7 139.586C110.7 140.036 110.3 140.396 109.58 140.396C108.81 140.396 108.34 139.996 108.29 139.466H107.35C107.41 140.466 108.31 141.166 109.59 141.166C110.8 141.166 111.59 140.486 111.59 139.586Z" fill="#534B4A"/>
<path d="M119.55 141.076H120.45V137.846C120.45 136.276 119.48 135.496 118.21 135.496C117.47 135.496 116.81 135.806 116.45 136.376V135.596H115.54V141.076H116.45V138.046C116.45 136.866 117.09 136.286 118.02 136.286C118.94 136.286 119.55 136.856 119.55 137.976V141.076Z" fill="#534B4A"/>
<path d="M124.267 136.276C125.207 136.276 126.007 136.866 125.997 137.936H122.537C122.637 136.866 123.377 136.276 124.267 136.276ZM126.827 139.386H125.847C125.647 139.976 125.127 140.396 124.307 140.396C123.377 140.396 122.597 139.786 122.527 138.676H126.907C126.927 138.486 126.937 138.326 126.937 138.126C126.937 136.626 125.897 135.506 124.307 135.506C122.707 135.506 121.597 136.596 121.597 138.326C121.597 140.066 122.747 141.166 124.307 141.166C125.667 141.166 126.547 140.386 126.827 139.386Z" fill="#534B4A"/>
<path d="M127.798 138.316C127.798 140.016 128.928 141.166 130.388 141.166C131.398 141.166 132.108 140.646 132.438 140.056V141.076H133.358V135.596H132.438V136.596C132.118 136.026 131.418 135.506 130.398 135.506C128.928 135.506 127.798 136.606 127.798 138.316ZM132.438 138.326C132.438 139.616 131.578 140.366 130.578 140.366C129.578 140.366 128.728 139.606 128.728 138.316C128.728 137.026 129.578 136.296 130.578 136.296C131.578 136.296 132.438 137.056 132.438 138.326Z" fill="#534B4A"/>
<path d="M135.806 138.096C135.806 136.826 136.466 136.436 137.336 136.436H137.576V135.496C136.706 135.496 136.116 135.876 135.806 136.486V135.596H134.896V141.076H135.806V138.096Z" fill="#534B4A"/>
<path d="M139.536 136.616V133.676H138.626V141.076H139.536V140.066C139.876 140.666 140.586 141.166 141.586 141.166C143.056 141.166 144.186 140.016 144.186 138.316C144.186 136.606 143.066 135.506 141.586 135.506C140.616 135.506 139.886 136.006 139.536 136.616ZM143.256 138.316C143.256 139.606 142.406 140.366 141.396 140.366C140.406 140.366 139.536 139.616 139.536 138.326C139.536 137.056 140.406 136.296 141.396 136.296C142.406 136.296 143.256 137.026 143.256 138.316Z" fill="#534B4A"/>
<path d="M147.464 140.036L145.744 135.596H144.734L146.944 141.016L145.864 143.656H146.804L150.104 135.596H149.164L147.464 140.036Z" fill="#534B4A"/>
<path d="M153 230.899C153 234.765 149.866 237.899 146 237.899C142.134 237.899 139 234.765 139 230.899C139 227.033 142.134 223.899 146 223.899C149.866 223.899 153 227.033 153 230.899Z" fill="#6A8AFE"/>
<defs>
<filter id="filter0_d_3_31909" x="0" y="120.899" width="177.765" height="40.1177" filterUnits="userSpaceOnUse" color-interpolation-filters="sRGB">
<feFlood flood-opacity="0" result="BackgroundImageFix"/>
<feColorMatrix in="SourceAlpha" type="matrix" values="0 0 0 0 0 0 0 0 0 0 0 0 0 0 0 0 0 0 127 0" result="hardAlpha"/>
<feOffset dy="4"/>
<feGaussianBlur stdDeviation="2"/>
<feComposite in2="hardAlpha" operator="out"/>
<feColorMatrix type="matrix" values="0 0 0 0 0 0 0 0 0 0 0 0 0 0 0 0 0 0 0.1 0"/>
<feBlend mode="normal" in2="BackgroundImageFix" result="effect1_dropShadow_3_31909"/>
<feBlend mode="normal" in="SourceGraphic" in2="effect1_dropShadow_3_31909" result="shape"/>
</filter>
</defs>
</svg>
